<svg width="282" height="35" viewBox="0 0 282 35" fill="none" xmlns="http://www.w3.org/2000/svg">
<path d="M165.92 0.519897H115.84V34.2599H165.92V0.519897Z" fill="#164194"/>
<path d="M166.45 0H165.4H116.37H115.32V1.05V33.74V34.79H116.37H165.4H166.45V33.74V1.05V0ZM165.4 33.74H116.37V1.05H165.4V33.74Z" fill="white"/>
<path d="M149.75 11.5499L150.15 10.3099L150.54 11.5499H151.84L150.79 12.2999L151.18 13.5199L150.15 12.7599L149.11 13.5199L149.51 12.2999L148.46 11.5499H149.75Z" fill="#FFED00"/>
<path d="M140.48 6.19996L140.87 4.95996L141.27 6.18996H142.57L141.51 6.94996L141.91 8.16996L140.87 7.41996L139.84 8.16996L140.23 6.94996L139.18 6.18996L140.48 6.19996Z" fill="#FFED00"/>
<path d="M128.47 16.9099H129.77L130.16 15.6699L130.56 16.9099H131.85L130.8 17.6599L131.2 18.8799L130.16 18.1299L129.13 18.8799L129.52 17.6599L128.47 16.9099Z" fill="#FFED00"/>
<path d="M132.64 24.2499L131.6 23.4899L130.57 24.2499L130.96 23.0299L129.91 22.2699H131.2L131.6 21.0299L132 22.2699H133.29L132.24 23.0299L132.64 24.2499Z" fill="#FFED00"/>
<path d="M132.24 12.3199L132.64 13.5299L131.6 12.7799L130.57 13.5299L130.96 12.3199L129.91 11.5599H131.2L131.6 10.3199L132 11.5599H133.29L132.24 12.3199Z" fill="#FFED00"/>
<path d="M135.12 7.6299L135.52 6.3999L135.91 7.6299H137.21L136.16 8.3899L136.55 9.6099L135.52 8.8499L134.49 9.6099L134.88 8.3899L133.83 7.6299H135.12Z" fill="#FFED00"/>
<path d="M136.56 28.17L135.53 27.42L134.49 28.17L134.89 26.95L133.84 26.2H135.13L135.53 24.96L135.92 26.2H137.22L136.17 26.95L136.56 28.17Z" fill="#FFED00"/>
<path d="M141.91 29.59L140.87 28.84L139.84 29.59L140.23 28.37L139.18 27.62H140.48L140.87 26.38L141.27 27.62H142.57L141.51 28.37L141.91 29.59Z" fill="#FFED00"/>
<path d="M147.26 28.17L146.22 27.42L145.19 28.17L145.58 26.95L144.53 26.2H145.82L146.22 24.96L146.62 26.2H147.91L146.86 26.95L147.26 28.17Z" fill="#FFED00"/>
<path d="M146.88 8.3899L147.27 9.6099L146.24 8.8499L145.2 9.6099L145.6 8.3899L144.55 7.6299L145.84 7.6399L146.24 6.3999L146.63 7.6299H147.93L146.88 8.3899Z" fill="#FFED00"/>
<path d="M151.18 24.2499L150.15 23.4899L149.11 24.2499L149.51 23.0299L148.46 22.2699H149.75L150.15 21.0299L150.54 22.2699H151.84L150.79 23.0299L151.18 24.2499Z" fill="#FFED00"/>
<path d="M152.6 18.8699L151.57 18.1099L150.54 18.8699L150.93 17.6499L149.88 16.8899L151.17 16.8999L151.57 15.6599L151.96 16.8899H153.26L152.21 17.6499L152.6 18.8699Z" fill="#FFED00"/>
<path d="M180.16 11.7L181.74 12.2C181.5 13.08 181.09 13.74 180.53 14.17C179.97 14.6 179.25 14.81 178.38 14.81C177.31 14.81 176.42 14.44 175.73 13.71C175.04 12.98 174.69 11.97 174.69 10.7C174.69 9.35995 175.04 8.30995 175.73 7.56995C176.42 6.82995 177.34 6.44995 178.47 6.44995C179.46 6.44995 180.26 6.73995 180.88 7.32995C181.25 7.67995 181.52 8.16995 181.71 8.81995L180.09 9.20995C179.99 8.78995 179.79 8.45995 179.49 8.21995C179.19 7.97995 178.82 7.85995 178.38 7.85995C177.78 7.85995 177.3 8.07995 176.92 8.50995C176.54 8.93995 176.36 9.63995 176.36 10.6C176.36 11.62 176.54 12.35 176.91 12.78C177.28 13.21 177.76 13.43 178.34 13.43C178.77 13.43 179.15 13.29 179.46 13.02C179.8 12.73 180.03 12.3 180.16 11.7Z" fill="white"/>
<path d="M184.36 11.75C184.36 12.33 184.5 12.78 184.77 13.08C185.05 13.39 185.39 13.54 185.79 13.54C186.19 13.54 186.53 13.39 186.81 13.08C187.08 12.77 187.22 12.32 187.22 11.73C187.22 11.16 187.08 10.72 186.81 10.41C186.54 10.1 186.2 9.94995 185.79 9.94995C185.39 9.94995 185.05 10.1 184.77 10.41C184.5 10.72 184.36 11.17 184.36 11.75ZM182.78 11.67C182.78 11.16 182.91 10.66 183.16 10.18C183.41 9.69995 183.77 9.32995 184.24 9.07995C184.71 8.82995 185.22 8.69995 185.8 8.69995C186.68 8.69995 187.41 8.98995 187.98 9.55995C188.55 10.14 188.83 10.86 188.83 11.74C188.83 12.63 188.54 13.36 187.97 13.94C187.4 14.52 186.68 14.82 185.81 14.82C185.27 14.82 184.76 14.7 184.27 14.46C183.78 14.22 183.41 13.86 183.16 13.39C182.9 12.91 182.78 12.34 182.78 11.67Z" fill="white"/>
<path d="M192.89 10.97H189.85V12.52H192.89V10.97Z" fill="white"/>
<path d="M193.11 8.81996H193.97V8.37996C193.97 7.88996 194.02 7.51996 194.13 7.27996C194.23 7.03996 194.43 6.83996 194.71 6.68996C194.99 6.53996 195.35 6.45996 195.78 6.45996C196.22 6.45996 196.65 6.52996 197.08 6.65996L196.87 7.73996C196.62 7.67996 196.39 7.64996 196.16 7.64996C195.94 7.64996 195.78 7.69996 195.68 7.80996C195.58 7.90996 195.53 8.11996 195.53 8.40996V8.81996H196.69V10.04H195.53V14.68H193.98V10.04H193.12V8.81996H193.11Z" fill="white"/>
<path d="M201.41 14.68V13.8C201.2 14.11 200.92 14.36 200.57 14.54C200.22 14.72 199.86 14.81 199.47 14.81C199.08 14.81 198.72 14.72 198.41 14.55C198.1 14.38 197.87 14.13 197.73 13.82C197.59 13.51 197.52 13.08 197.52 12.52V8.81997H199.07V11.51C199.07 12.33 199.1 12.84 199.16 13.02C199.22 13.21 199.32 13.35 199.47 13.46C199.62 13.57 199.81 13.62 200.04 13.62C200.3 13.62 200.54 13.55 200.75 13.4C200.96 13.25 201.1 13.07 201.18 12.86C201.26 12.65 201.3 12.12 201.3 11.28V8.80997H202.85V14.66H201.41V14.68Z" fill="white"/>
<path d="M209.78 14.68H208.23V11.69C208.23 11.06 208.2 10.65 208.13 10.46C208.06 10.27 207.96 10.13 207.81 10.03C207.66 9.92997 207.48 9.87997 207.27 9.87997C207 9.87997 206.76 9.94997 206.55 10.1C206.34 10.25 206.19 10.44 206.11 10.68C206.03 10.92 205.99 11.37 205.99 12.03V14.68H204.44V8.82997H205.88V9.68997C206.39 9.02997 207.03 8.69997 207.81 8.69997C208.15 8.69997 208.46 8.75997 208.75 8.87997C209.03 8.99997 209.25 9.15997 209.39 9.34997C209.54 9.53997 209.64 9.75997 209.69 9.99997C209.75 10.24 209.78 10.59 209.78 11.04V14.68Z" fill="white"/>
<path d="M212.58 11.62C212.58 12.24 212.67 12.7 212.84 12.98C213.09 13.38 213.44 13.59 213.89 13.59C214.25 13.59 214.55 13.44 214.8 13.14C215.05 12.84 215.18 12.38 215.18 11.78C215.18 11.11 215.06 10.62 214.82 10.33C214.58 10.03 214.27 9.88996 213.89 9.88996C213.52 9.88996 213.21 10.04 212.97 10.33C212.71 10.6 212.58 11.04 212.58 11.62ZM216.72 14.68H215.28V13.82C215.04 14.15 214.76 14.4 214.43 14.57C214.11 14.73 213.78 14.81 213.45 14.81C212.78 14.81 212.2 14.54 211.72 14C211.24 13.46 211 12.7 211 11.73C211 10.74 211.23 9.97996 211.7 9.46996C212.17 8.94996 212.76 8.69995 213.47 8.69995C214.12 8.69995 214.69 8.96995 215.17 9.51995V6.60995H216.72V14.68Z" fill="white"/>
<path d="M221.72 11.25C221.71 10.8 221.59 10.46 221.37 10.23C221.15 9.99996 220.88 9.87996 220.56 9.87996C220.22 9.87996 219.94 9.99996 219.72 10.25C219.5 10.5 219.39 10.83 219.39 11.25H221.72ZM221.63 12.81L223.17 13.07C222.97 13.64 222.66 14.07 222.23 14.36C221.8 14.66 221.27 14.8 220.62 14.8C219.6 14.8 218.85 14.47 218.36 13.8C217.97 13.27 217.78 12.59 217.78 11.78C217.78 10.81 218.03 10.05 218.54 9.49996C219.05 8.94996 219.69 8.67996 220.46 8.67996C221.33 8.67996 222.02 8.96996 222.52 9.53996C223.02 10.12 223.26 11 223.24 12.18H219.36C219.37 12.64 219.5 13 219.74 13.25C219.98 13.5 220.28 13.63 220.63 13.63C220.87 13.63 221.08 13.56 221.24 13.43C221.43 13.32 221.55 13.11 221.63 12.81Z" fill="white"/>
<path d="M225.76 11.62C225.76 12.24 225.85 12.7 226.02 12.98C226.27 13.38 226.62 13.59 227.07 13.59C227.43 13.59 227.73 13.44 227.98 13.14C228.23 12.84 228.36 12.38 228.36 11.78C228.36 11.11 228.24 10.62 228 10.33C227.76 10.03 227.45 9.88996 227.07 9.88996C226.7 9.88996 226.39 10.04 226.15 10.33C225.88 10.6 225.76 11.04 225.76 11.62ZM229.89 14.68H228.45V13.82C228.21 14.15 227.93 14.4 227.6 14.57C227.28 14.73 226.95 14.81 226.61 14.81C225.94 14.81 225.36 14.54 224.88 14C224.4 13.46 224.16 12.7 224.16 11.73C224.16 10.74 224.39 9.97996 224.86 9.46996C225.33 8.94996 225.92 8.69995 226.63 8.69995C227.28 8.69995 227.85 8.96995 228.33 9.51995V6.60995H229.88V14.68H229.89Z" fill="white"/>
<path d="M236.03 11.62C236.03 12.23 236.13 12.68 236.32 12.97C236.59 13.38 236.94 13.59 237.39 13.59C237.73 13.59 238.02 13.44 238.27 13.15C238.52 12.86 238.63 12.4 238.63 11.77C238.63 11.1 238.51 10.62 238.27 10.32C238.03 10.02 237.72 9.87996 237.34 9.87996C236.97 9.87996 236.66 10.02 236.41 10.31C236.15 10.59 236.03 11.03 236.03 11.62ZM234.49 14.68V6.59996H236.04V9.50996C236.52 8.96996 237.08 8.68996 237.74 8.68996C238.45 8.68996 239.04 8.94996 239.51 9.45996C239.98 9.97996 240.21 10.72 240.21 11.69C240.21 12.69 239.97 13.46 239.5 14C239.02 14.54 238.44 14.81 237.76 14.81C237.43 14.81 237.1 14.73 236.77 14.56C236.45 14.39 236.17 14.15 235.93 13.82V14.68H234.49Z" fill="white"/>
<path d="M240.72 8.81996H242.37L243.77 12.98L245.14 8.81996H246.75L244.68 14.45L244.31 15.47C244.17 15.81 244.04 16.07 243.92 16.25C243.8 16.43 243.66 16.58 243.5 16.69C243.34 16.8 243.14 16.89 242.91 16.95C242.68 17.01 242.41 17.04 242.12 17.04C241.82 17.04 241.53 17.01 241.24 16.95L241.1 15.74C241.34 15.79 241.56 15.81 241.76 15.81C242.12 15.81 242.39 15.7 242.56 15.49C242.73 15.28 242.87 15.01 242.96 14.68L240.72 8.81996Z" fill="white"/>
<path d="M178 22.37V23.61H176.94V25.97C176.94 26.45 176.95 26.73 176.97 26.81L177.11 27.01C177.18 27.06 177.27 27.09 177.37 27.09C177.51 27.09 177.72 27.04 177.99 26.94L178.12 28.14C177.76 28.29 177.35 28.37 176.9 28.37C176.62 28.37 176.37 28.32 176.14 28.23C175.92 28.14 175.75 28.01 175.65 27.87C175.55 27.72 175.47 27.52 175.43 27.27C175.4 27.09 175.38 26.73 175.38 26.18V23.6H174.67V22.36H175.38V21.2L176.93 20.3V22.37H178Z" fill="white"/>
<path d="M180.62 20.14V23.11C181.12 22.53 181.72 22.23 182.41 22.23C182.77 22.23 183.09 22.3 183.37 22.43C183.66 22.56 183.87 22.73 184.02 22.94C184.17 23.15 184.26 23.37 184.32 23.62C184.37 23.87 184.4 24.26 184.4 24.78V28.22H182.85V25.13C182.85 24.52 182.82 24.13 182.76 23.96C182.7 23.79 182.6 23.66 182.45 23.56C182.3 23.46 182.11 23.41 181.89 23.41C181.63 23.41 181.4 23.47 181.2 23.6C181 23.73 180.85 23.91 180.76 24.17C180.67 24.42 180.62 24.79 180.62 25.29V28.22H179.07V20.14H180.62Z" fill="white"/>
<path d="M189.45 24.7999C189.44 24.3499 189.32 24.01 189.1 23.78C188.88 23.55 188.61 23.43 188.3 23.43C187.96 23.43 187.68 23.5499 187.46 23.7999C187.24 24.0499 187.13 24.3799 187.13 24.7999H189.45ZM189.37 26.36L190.91 26.6199C190.71 27.1899 190.4 27.62 189.97 27.91C189.54 28.21 189.01 28.35 188.36 28.35C187.34 28.35 186.59 28.02 186.1 27.35C185.71 26.82 185.52 26.14 185.52 25.33C185.52 24.36 185.77 23.5999 186.28 23.0499C186.79 22.4999 187.43 22.2299 188.2 22.2299C189.07 22.2299 189.76 22.52 190.26 23.09C190.76 23.67 191 24.55 190.98 25.7299H187.1C187.11 26.1899 187.24 26.5499 187.48 26.7999C187.72 27.0499 188.02 27.18 188.37 27.18C188.61 27.18 188.82 27.11 188.98 26.9799C189.16 26.8699 189.28 26.66 189.37 26.36Z" fill="white"/>
<path d="M195.4 28.2299V20.1399H201.4V21.5099H197.04V23.2999H201.09V24.6599H197.04V26.8599H201.55V28.2299H195.4Z" fill="white"/>
<path d="M206.78 28.2299V27.3499C206.57 27.6599 206.29 27.9099 205.94 28.0899C205.59 28.2699 205.23 28.3599 204.84 28.3599C204.45 28.3599 204.09 28.2699 203.78 28.0999C203.47 27.9299 203.24 27.6799 203.1 27.3699C202.96 27.0599 202.89 26.6299 202.89 26.0699V22.3599H204.44V25.0499C204.44 25.8699 204.47 26.3799 204.53 26.5599C204.59 26.7499 204.69 26.8899 204.84 26.9999C204.99 27.1099 205.18 27.1599 205.41 27.1599C205.67 27.1599 205.91 27.0899 206.12 26.9399C206.33 26.7899 206.47 26.6099 206.55 26.3999C206.63 26.1799 206.67 25.6599 206.67 24.8199V22.3499H208.22V28.2099H206.78V28.2299Z" fill="white"/>
<path d="M211.3 28.2299H209.75V22.3699H211.19V23.1999C211.44 22.8099 211.66 22.5499 211.85 22.4199C212.05 22.2999 212.27 22.2299 212.52 22.2299C212.87 22.2299 213.21 22.3299 213.54 22.5199L213.06 23.8699C212.8 23.6999 212.56 23.6199 212.33 23.6199C212.11 23.6199 211.93 23.6799 211.78 23.7999C211.63 23.9199 211.51 24.1299 211.43 24.4499C211.34 24.7599 211.3 25.4199 211.3 26.4099V28.2299Z" fill="white"/>
<path d="M215.45 25.2999C215.45 25.8799 215.59 26.3299 215.86 26.6299C216.14 26.9399 216.48 27.0899 216.88 27.0899C217.28 27.0899 217.62 26.9399 217.9 26.6299C218.17 26.3199 218.31 25.8699 218.31 25.2799C218.31 24.7099 218.17 24.2699 217.9 23.9599C217.63 23.6499 217.29 23.4999 216.88 23.4999C216.48 23.4999 216.14 23.6599 215.86 23.9599C215.58 24.2699 215.45 24.7199 215.45 25.2999ZM213.86 25.2199C213.86 24.7099 213.99 24.2099 214.24 23.7299C214.49 23.2499 214.85 22.8799 215.32 22.6299C215.79 22.3799 216.3 22.2499 216.88 22.2499C217.76 22.2499 218.49 22.5399 219.06 23.1099C219.63 23.6899 219.91 24.4099 219.91 25.2899C219.91 26.1799 219.62 26.9099 219.05 27.4899C218.48 28.0699 217.76 28.3599 216.89 28.3599C216.35 28.3599 215.84 28.2399 215.35 27.9999C214.86 27.7599 214.49 27.3999 214.24 26.9299C213.98 26.4599 213.86 25.8899 213.86 25.2199Z" fill="white"/>
<path d="M222.6 25.1999C222.6 25.8599 222.73 26.3399 222.99 26.6599C223.25 26.9799 223.57 27.1299 223.94 27.1299C224.3 27.1299 224.6 26.9899 224.84 26.6999C225.08 26.4099 225.2 25.9399 225.2 25.2799C225.2 24.6699 225.08 24.2099 224.83 23.9099C224.58 23.6099 224.28 23.4599 223.91 23.4599C223.53 23.4599 223.22 23.6099 222.97 23.8999C222.72 24.1899 222.6 24.6199 222.6 25.1999ZM221.07 22.3699H222.51V23.2299C222.7 22.9399 222.95 22.6999 223.27 22.5099C223.59 22.3299 223.95 22.2299 224.34 22.2299C225.02 22.2299 225.6 22.4999 226.07 23.0299C226.54 23.5599 226.78 24.3099 226.78 25.2599C226.78 26.2399 226.54 26.9999 226.06 27.5399C225.58 28.0799 225 28.3499 224.32 28.3499C224 28.3499 223.7 28.2799 223.44 28.1599C223.18 28.0299 222.9 27.8099 222.61 27.4999V30.4499H221.06V22.3699H221.07Z" fill="white"/>
<path d="M231.49 24.7999C231.48 24.3499 231.36 24.0099 231.14 23.7799C230.92 23.5499 230.65 23.4299 230.33 23.4299C229.99 23.4299 229.71 23.5499 229.49 23.7999C229.27 24.0499 229.16 24.3799 229.16 24.7999H231.49ZM231.4 26.3599L232.94 26.6199C232.74 27.1899 232.43 27.6199 232 27.9099C231.57 28.2099 231.04 28.3499 230.39 28.3499C229.37 28.3499 228.62 28.0199 228.13 27.3499C227.75 26.8199 227.55 26.1399 227.55 25.3299C227.55 24.3599 227.8 23.5999 228.31 23.0499C228.82 22.4999 229.46 22.2299 230.23 22.2299C231.1 22.2299 231.79 22.5199 232.29 23.0899C232.79 23.6699 233.03 24.5499 233.01 25.7299H229.13C229.14 26.1899 229.27 26.5499 229.51 26.7999C229.75 27.0499 230.05 27.1799 230.4 27.1799C230.64 27.1799 230.85 27.1099 231.01 26.9799C231.19 26.8699 231.32 26.6599 231.4 26.3599Z" fill="white"/>
<path d="M237.52 25.4099C237.32 25.4799 237.01 25.5599 236.58 25.6499C236.15 25.7399 235.87 25.8299 235.74 25.9199C235.54 26.0599 235.44 26.2499 235.44 26.4699C235.44 26.6899 235.52 26.8699 235.68 27.0299C235.84 27.1899 236.05 27.2699 236.3 27.2699C236.58 27.2699 236.85 27.1799 237.1 26.9899C237.29 26.8499 237.41 26.6799 237.47 26.4799C237.51 26.3499 237.53 26.0999 237.53 25.7299V25.4099H237.52ZM235.45 24.1599L234.04 23.9099C234.2 23.3399 234.47 22.9199 234.86 22.6499C235.25 22.3799 235.82 22.2399 236.58 22.2399C237.27 22.2399 237.79 22.3199 238.12 22.4899C238.46 22.6499 238.7 22.8599 238.83 23.1099C238.97 23.3599 239.04 23.8199 239.04 24.4999L239.02 26.3099C239.02 26.8199 239.04 27.1999 239.09 27.4499C239.14 27.6899 239.23 27.9599 239.37 28.2399H237.84C237.8 28.1399 237.75 27.9799 237.69 27.7799C237.67 27.6899 237.65 27.6299 237.64 27.5999C237.38 27.8599 237.09 28.0499 236.79 28.1799C236.49 28.3099 236.17 28.3699 235.83 28.3699C235.23 28.3699 234.75 28.2099 234.4 27.8799C234.05 27.5499 233.88 27.1399 233.88 26.6399C233.88 26.3099 233.96 26.0099 234.12 25.7499C234.28 25.4899 234.5 25.2899 234.78 25.1499C235.06 25.0099 235.47 24.8899 236.01 24.7899C236.74 24.6599 237.24 24.5299 237.52 24.4099V24.2599C237.52 23.9599 237.45 23.7499 237.3 23.6199C237.15 23.4899 236.87 23.4299 236.47 23.4299C236.19 23.4299 235.98 23.4799 235.82 23.5899C235.67 23.6899 235.54 23.8799 235.45 24.1599Z" fill="white"/>
<path d="M245.9 28.2299H244.35V25.2399C244.35 24.6099 244.32 24.1999 244.25 24.0099C244.18 23.8199 244.08 23.6799 243.93 23.5799C243.78 23.4799 243.6 23.4299 243.39 23.4299C243.12 23.4299 242.88 23.4999 242.67 23.6499C242.46 23.7999 242.31 23.9899 242.23 24.2299C242.15 24.4699 242.11 24.9199 242.11 25.5799V28.2299H240.56V22.3699H242V23.2299C242.51 22.5699 243.15 22.2399 243.93 22.2399C244.27 22.2399 244.58 22.2999 244.87 22.4199C245.15 22.5399 245.37 22.6999 245.51 22.8899C245.66 23.0799 245.76 23.2999 245.81 23.5399C245.87 23.7799 245.9 24.1299 245.9 24.5799V28.2299Z" fill="white"/>
<path d="M250.6 20.1399H252.23V24.5199C252.23 25.2099 252.25 25.6599 252.29 25.8699C252.36 26.1999 252.53 26.4699 252.79 26.6699C253.05 26.8699 253.41 26.9699 253.87 26.9699C254.33 26.9699 254.68 26.8699 254.92 26.6899C255.16 26.4999 255.3 26.2699 255.34 25.9899C255.39 25.7099 255.41 25.2599 255.41 24.6199V20.1499H257.04V24.3899C257.04 25.3599 257 26.0499 256.91 26.4499C256.82 26.8499 256.66 27.1899 256.42 27.4599C256.18 27.7399 255.87 27.9599 255.47 28.1199C255.07 28.2799 254.56 28.3599 253.92 28.3599C253.15 28.3599 252.56 28.2699 252.16 28.0899C251.76 27.9099 251.45 27.6799 251.21 27.3999C250.98 27.1199 250.83 26.8199 250.75 26.4999C250.64 26.0399 250.59 25.3499 250.59 24.4499V20.1399H250.6Z" fill="white"/>
<path d="M264.09 28.2299H262.54V25.2399C262.54 24.6099 262.51 24.1999 262.44 24.0099C262.37 23.8199 262.27 23.6799 262.12 23.5799C261.97 23.4799 261.79 23.4299 261.58 23.4299C261.31 23.4299 261.07 23.4999 260.86 23.6499C260.65 23.7999 260.5 23.9899 260.42 24.2299C260.34 24.4699 260.3 24.9199 260.3 25.5799V28.2299H258.75V22.3699H260.19V23.2299C260.7 22.5699 261.34 22.2399 262.12 22.2399C262.46 22.2399 262.77 22.2999 263.06 22.4199C263.34 22.5399 263.56 22.6999 263.7 22.8899C263.85 23.0799 263.95 23.2999 264 23.5399C264.06 23.7799 264.09 24.1299 264.09 24.5799V28.2299Z" fill="white"/>
<path d="M265.66 22.3699H267.21V28.2299H265.66V22.3699ZM265.66 20.1399H267.21V21.5699H265.66V20.1399Z" fill="white"/>
<path d="M270.02 25.2999C270.02 25.8799 270.16 26.3299 270.43 26.6299C270.71 26.9399 271.05 27.0899 271.45 27.0899C271.85 27.0899 272.19 26.9399 272.47 26.6299C272.74 26.3199 272.88 25.8699 272.88 25.2799C272.88 24.7099 272.74 24.2699 272.47 23.9599C272.2 23.6499 271.86 23.4999 271.45 23.4999C271.05 23.4999 270.71 23.6599 270.43 23.9599C270.16 24.2699 270.02 24.7199 270.02 25.2999ZM268.44 25.2199C268.44 24.7099 268.57 24.2099 268.82 23.7299C269.07 23.2499 269.43 22.8799 269.9 22.6299C270.37 22.3799 270.88 22.2499 271.46 22.2499C272.35 22.2499 273.07 22.5399 273.64 23.1099C274.21 23.6899 274.49 24.4099 274.49 25.2899C274.49 26.1799 274.2 26.9099 273.63 27.4899C273.06 28.0699 272.34 28.3599 271.47 28.3599C270.93 28.3599 270.42 28.2399 269.93 27.9999C269.44 27.7599 269.07 27.3999 268.82 26.9299C268.56 26.4599 268.44 25.8899 268.44 25.2199Z" fill="white"/>
<path d="M281.02 28.23H279.47V25.24C279.47 24.61 279.44 24.2 279.37 24.01C279.3 23.82 279.2 23.68 279.05 23.58C278.9 23.48 278.72 23.43 278.51 23.43C278.24 23.43 278 23.5 277.79 23.65C277.58 23.8 277.43 23.99 277.35 24.23C277.27 24.47 277.23 24.92 277.23 25.58V28.23H275.68V22.37H277.12V23.23C277.63 22.57 278.27 22.24 279.05 22.24C279.39 22.24 279.7 22.3 279.99 22.42C280.27 22.54 280.49 22.7 280.63 22.89C280.78 23.08 280.88 23.3 280.93 23.54C280.99 23.78 281.02 24.13 281.02 24.58V28.23Z" fill="white"/>
<path d="M75.94 8.01995C77.36 8.01995 78.31 8.90995 78.67 10.29C79.92 10.41 81.16 10.53 82.38 10.66C81.87 7.51995 79.8 4.94995 75.94 4.94995C72.86 4.94995 70.51 6.90995 69.64 9.60995C70.88 9.67995 72.1 9.76995 73.32 9.84995C73.8 8.70995 74.7 8.01995 75.94 8.01995Z" fill="white"/>
<path d="M69.27 12.0199C69.27 16.1499 72.27 18.9899 76.32 18.9899C78.76 18.9899 80.57 18.0299 81.83 16.4699L79.64 14.5299C78.58 15.5099 77.65 15.9199 76.37 15.9199C74.66 15.9199 73.45 15.0099 73.07 13.2799H82.46C82.48 12.9299 82.51 12.5799 82.51 12.2699C82.51 11.7199 82.46 11.1799 82.38 10.6599C81.16 10.5299 79.92 10.4099 78.67 10.2899C78.72 10.4799 78.76 10.6799 78.79 10.8899H73.03C73.09 10.5099 73.2 10.1699 73.33 9.84994C72.12 9.75994 70.89 9.67994 69.65 9.60994C69.41 10.3499 69.28 11.1399 69.28 11.9699V12.0199H69.27Z" fill="white"/>
<path d="M3.88 1.06995H0V12.9799C1.26 12.7399 2.55 12.5099 3.88 12.2899V1.06995Z" fill="white"/>
<path d="M27.58 8.46994H30.75V5.19994H27.58V1.74994H23.75V5.19994H22.14V8.46994H23.75V9.94994C25.01 9.84994 26.29 9.75994 27.58 9.67994V8.46994Z" fill="white"/>
<path d="M39.59 8.01995C40.53 8.01995 41.26 8.41995 41.76 9.07995C43.03 9.04995 44.31 9.02995 45.6 9.01995C44.71 6.66995 42.76 4.94995 39.59 4.94995C36.6 4.94995 34.3 6.78995 33.37 9.35995C34.68 9.29995 35.99 9.24995 37.31 9.19995C37.83 8.44995 38.6 8.01995 39.59 8.01995Z" fill="white"/>
<path d="M55.83 9.05995C56.18 8.98995 56.54 8.94995 56.94 8.94995H57.14V4.94995C54.88 4.84995 53.61 6.05994 52.84 7.91995V5.19995H49.01V8.99995H49.22C51.44 8.99995 53.64 9.01995 55.83 9.05995Z" fill="white"/>
<path d="M67.46 8.94995H67.66V4.94995C65.4 4.84995 64.14 6.05994 63.36 7.91995V5.19995H59.53V9.15995C61.52 9.21994 63.49 9.28995 65.44 9.37995C66.01 9.08995 66.69 8.94995 67.46 8.94995Z" fill="white"/>
<path d="M88.08 11.29V11.24C88.08 9.39995 89.49 8.11995 91.35 8.11995C93.21 8.11995 94.65 9.39995 94.65 11.24V11.29C94.65 11.64 94.6 11.98 94.5 12.28C95.84 12.5 97.15 12.73 98.43 12.98V5.19995H94.6V6.95995C93.57 5.82995 92.34 4.94995 90.25 4.94995C87.25 4.94995 84.45 7.07995 84.28 10.87C85.57 11.02 86.84 11.17 88.09 11.34L88.08 11.29Z" fill="white"/>
<path d="M12.71 8.49995C12.96 8.37995 13.52 8.25995 13.8 8.25995C14.08 8.25995 14.64 8.37995 14.89 8.49995C15.86 8.95995 16.3 9.64995 16.43 10.62C17.64 10.49 18.87 10.37 20.12 10.26C19.69 8.29995 18.52 6.63995 16.7 5.71995C15.87 5.29995 14.9 4.94995 13.81 4.94995C12.72 4.94995 11.75 5.29995 10.91 5.71995C8.65 6.86995 7.38 9.15995 7.31 11.76C8.56 11.58 9.84 11.4 11.13 11.23C11.14 9.92995 11.54 9.04995 12.71 8.49995Z" fill="white"/>
<path d="M3.88 18.6899V12.2899C2.56 12.5099 1.26 12.7399 0 12.9799V18.6899H3.88Z" fill="white"/>
<path d="M27.68 18.9199C28.96 18.9199 29.9 18.6199 30.7 18.1399V15.0699C30.15 15.3699 29.52 15.5499 28.81 15.5499C27.95 15.5499 27.58 15.1199 27.58 14.2399V9.67995C26.29 9.75995 25.02 9.84995 23.75 9.94995V14.8599C23.75 17.9899 25.34 18.9199 27.68 18.9199Z" fill="white"/>
<path d="M32.92 12.0199C32.92 16.1499 35.92 18.9899 39.97 18.9899C42.41 18.9899 44.22 18.0299 45.48 16.4699L43.29 14.5299C42.23 15.5099 41.3 15.9199 40.02 15.9199C38.31 15.9199 37.1 15.0099 36.72 13.2799H46.11C46.13 12.9299 46.16 12.5799 46.16 12.2699C46.16 11.1299 45.97 10.0199 45.6 9.01994C44.31 9.02994 43.03 9.04994 41.76 9.07994C42.11 9.55994 42.35 10.1699 42.44 10.8899H36.68C36.79 10.2299 37.01 9.65994 37.33 9.20994C36 9.25994 34.69 9.30994 33.38 9.36994C33.09 10.1799 32.93 11.0599 32.93 11.9799V12.0199H32.92Z" fill="white"/>
<path d="M52.83 18.69V13.7099C52.83 10.9899 53.95 9.46995 55.83 9.06995C53.64 9.02995 51.44 9.00995 49.21 9.00995H49V18.6999H52.83V18.69Z" fill="white"/>
<path d="M63.36 18.6899V13.7099C63.36 11.4599 64.12 10.0399 65.44 9.37994C63.49 9.28994 61.52 9.20994 59.53 9.15994V18.6999H63.36V18.6899Z" fill="white"/>
<path d="M84.25 11.2899C84.25 15.2899 87.1 17.5799 90.24 17.5799C92.28 17.5799 93.51 16.7499 94.65 15.3899V16.0399C94.65 18.4599 93.42 19.7099 90.8 19.7099C89.01 19.7099 87.63 19.2599 86.24 18.4799L84.93 21.3499C86.64 22.2599 88.71 22.7599 90.9 22.7599C93.52 22.7599 95.46 22.2099 96.71 20.9499C97.84 19.8199 98.42 18.0499 98.42 15.6399V12.9799C97.14 12.7399 95.83 12.5099 94.49 12.2799C94.07 13.5699 92.85 14.4099 91.34 14.4099C89.49 14.4099 88.09 13.1699 88.07 11.3299C86.82 11.1599 85.55 11.0099 84.26 10.8599C84.25 10.9799 84.24 11.0999 84.24 11.2299V11.2899H84.25Z" fill="white"/>
<path d="M16.48 11.2699V12.5799V18.1899V18.6799H20.31V12.0099V11.9599C20.31 11.3699 20.25 10.7999 20.13 10.2499C18.89 10.3599 17.66 10.4799 16.44 10.6099C16.46 10.8199 16.48 11.0399 16.48 11.2699Z" fill="white"/>
<path d="M7.29999 12.0199V18.6899H11.13V18.1899V12.5799V11.2699V11.2399C9.82999 11.4099 8.55999 11.5799 7.30999 11.7599L7.29999 11.9699V12.0199Z" fill="white"/>
<path d="M94.34 32.1699V30.3699H97.82V28.9699H94.34V27.2799H98.28V25.8399H92.61V33.6099H98.42V32.1699H94.34ZM88.38 30.0099H86.96V27.3099H88.38C89.44 27.3099 89.98 27.8099 89.98 28.6599C89.98 29.5099 89.44 30.0099 88.38 30.0099ZM88.48 25.8399H85.23V33.6099H86.97V31.4699H88.48C90.48 31.4699 91.74 30.3999 91.74 28.6599C91.74 26.9199 90.48 25.8399 88.48 25.8399ZM80.13 32.2099C78.79 32.2099 77.78 31.1999 77.78 29.7199C77.78 28.2399 78.79 27.2299 80.13 27.2299C81.47 27.2299 82.48 28.2399 82.48 29.7199C82.48 31.1999 81.47 32.2099 80.13 32.2099ZM80.13 33.7399C82.49 33.7399 84.23 32.0399 84.23 29.7199C84.23 27.3999 82.48 25.6999 80.13 25.6999C77.76 25.6999 76.02 27.4099 76.02 29.7199C76.03 32.0399 77.76 33.7399 80.13 33.7399ZM73.73 28.6599C73.73 29.4999 73.19 30.0099 72.13 30.0099H70.71V27.2999H72.13C73.19 27.3099 73.73 27.8099 73.73 28.6599ZM75.63 33.6099L73.95 31.1099C74.92 30.6799 75.49 29.8199 75.49 28.6599C75.49 26.9199 74.24 25.8399 72.23 25.8399H68.98V33.6099H70.72V31.4399H72.23H72.32L73.77 33.6099H75.63ZM64.18 33.7399C66.31 33.7399 67.58 32.4799 67.58 30.1899V25.8399H65.87V30.1199C65.87 31.5999 65.26 32.2099 64.2 32.2099C63.15 32.2099 62.53 31.5999 62.53 30.1199V25.8399H60.79V30.1899C60.79 32.4799 62.05 33.7399 64.18 33.7399ZM55.75 32.1699V30.3699H59.23V28.9699H55.75V27.2799H59.69V25.8399H54.02V33.6099H59.83V32.1699H55.75ZM45.16 33.6099H50.66V32.1499H46.9V25.8399H45.16V33.6099ZM39.27 30.5799L40.46 27.6099L41.65 30.5799H39.27ZM42.86 33.6099H44.68L41.33 25.8399H39.61L36.27 33.6099H38.05L38.71 31.9399H42.19L42.86 33.6099ZM34.15 28.6599C34.15 29.4999 33.61 30.0099 32.55 30.0099H31.13V27.2999H32.55C33.61 27.3099 34.15 27.8099 34.15 28.6599ZM36.05 33.6099L34.37 31.1099C35.34 30.6799 35.91 29.8199 35.91 28.6599C35.91 26.9199 34.66 25.8399 32.65 25.8399H29.4V33.6099H31.14V31.4399H32.65H32.74L34.19 33.6099H36.05ZM24.71 33.6099H26.45V27.2999H28.85V25.8399H22.31V27.2999H24.71V33.6099ZM20.03 25.8399V30.5599L16.3 25.8399H14.86V33.6099H16.57V28.8899L20.31 33.6099H21.73V25.8399H20.03ZM9.66 32.1699V30.3699H13.14V28.9699H9.66V27.2799H13.6V25.8399H7.93V33.6099H13.74V32.1699H9.66ZM4.06 33.7399C5.37 33.7399 6.45 33.2499 7.16 32.3499L6.05 31.2799C5.55 31.8899 4.91 32.1999 4.16 32.1999C2.76 32.1999 1.76 31.1799 1.76 29.7099C1.76 28.2399 2.76 27.2199 4.16 27.2199C4.91 27.2199 5.54 27.5299 6.05 28.1299L7.16 27.0699C6.45 26.1799 5.37 25.6899 4.07 25.6899C1.73 25.6899 0 27.3599 0 29.7099C0 32.0699 1.74 33.7399 4.06 33.7399Z" fill="white"/>
</svg>
